<svg width="44" height="45" viewBox="0 0 44 45" fill="none" xmlns="http://www.w3.org/2000/svg">
<path d="M17.8805 10.3739C18.3335 10.3739 18.7682 10.191 19.09 9.86503C19.4119 9.53902 19.5949 9.09623 19.5992 8.63296C19.6037 8.1694 19.4289 7.72281 19.1129 7.39043C18.7969 7.05805 18.3653 6.86678 17.9121 6.85828M17.732 13.8727C17.279 13.8727 16.8443 13.6898 16.5225 13.3638C16.2006 13.0378 16.0176 12.595 16.0132 12.1317C16.0088 11.6681 16.1836 11.2216 16.4996 10.8892C16.8156 10.5568 17.2472 10.3655 17.7004 10.357M17.8805 17.3883C18.3335 17.3883 18.7682 17.2054 19.09 16.8794C19.4119 16.5534 19.5949 16.1106 19.5992 15.6473C19.6037 15.1838 19.4289 14.7372 19.1129 14.4048C18.7969 14.0724 18.3653 13.8812 17.9121 13.8727M24.7555 10.3739C25.2085 10.3739 25.6432 10.191 25.965 9.86503C26.2869 9.53902 26.4699 9.09623 26.4742 8.63296C26.4787 8.1694 26.3039 7.72281 25.9879 7.39043C25.6719 7.05805 25.2403 6.86678 24.7871 6.85828M24.607 13.8727C24.154 13.8727 23.7193 13.6898 23.3975 13.3638C23.0756 13.0378 22.8926 12.595 22.8882 12.1317C22.8838 11.6681 23.0586 11.2216 23.3746 10.8892C23.6906 10.5568 24.1222 10.3655 24.5754 10.357M24.7555 17.3883C25.2085 17.3883 25.6432 17.2054 25.965 16.8794C26.2869 16.5534 26.4699 16.1106 26.4742 15.6473C26.4787 15.1838 26.3039 14.7372 25.9879 14.4048C25.6719 14.0724 25.2403 13.8812 24.7871 13.8727M11.5376 10.3739C11.9906 10.3739 12.4253 10.191 12.7472 9.86503C13.069 9.53902 13.252 9.09623 13.2564 8.63296C13.2608 8.16964 13.0862 7.72326 12.7705 7.39092C12.4548 7.05858 12.0236 6.86715 11.5706 6.85828M11.3905 13.8727C10.9375 13.8727 10.5028 13.6898 10.181 13.3638C9.85909 13.0378 9.67609 12.595 9.67174 12.1317C9.66731 11.6684 9.84193 11.222 10.1576 10.8897C10.4733 10.5573 10.9045 10.3659 11.3575 10.357M11.5376 17.3883C11.9906 17.3883 12.4253 17.2054 12.7472 16.8794C13.069 16.5534 13.252 16.1106 13.2564 15.6473C13.2608 15.184 13.0862 14.7376 12.7705 14.4053C12.4548 14.073 12.0236 13.8815 11.5706 13.8727" stroke="#FAA41A" stroke-linecap="round" stroke-linejoin="round"/>
<path d="M12.2072 38.1417H24.5795V33.9567C21.9436 35.1464 20.4077 35.332 18.271 35.377C15.5994 35.4333 13.7885 34.9608 12.2072 34.5558V38.1417Z" stroke="#383747" stroke-linecap="round" stroke-linejoin="round"/>
<path d="M33.9652 22.9908C31.6552 31.8136 22.8264 37.0491 14.1996 34.6852C11.4619 33.9376 8.96533 32.4649 6.96167 30.4157C4.958 28.3665 3.51808 25.8132 2.78711 23.0133L33.9652 22.9908Z" fill="#FAA41A" stroke="#383747" stroke-linecap="round" stroke-linejoin="round"/>
<path d="M2.77887 20.1712H33.9707V23.0667H2.77887V20.1712Z" stroke="#383747" stroke-linecap="round" stroke-linejoin="round"/>
<path d="M22.9268 20.1628C33.6518 20.5959 30.9554 12.78 38.8823 12.074C39.666 12.0037 40.0785 11.9883 41.1785 12.06L41.2198 12.0459C39.8516 11.2134 37.3299 9.80436 35.2248 10.402C34.1481 10.7086 32.4706 11.8926 31.3473 14.1497C28.5189 20.4834 25.7648 20.1501 23.5235 20.1614L22.9268 20.1628Z" stroke="#383747" stroke-linecap="round" stroke-linejoin="round"/>
<path d="M29.5267 25.4756C28.5532 28.5131 25.9476 30.6225 22.9226 31.1962" stroke="white" stroke-linecap="round" stroke-linejoin="round"/>
</svg>
