<svg width="164" height="45" viewBox="0 0 164 45" fill="none" xmlns="http://www.w3.org/2000/svg">
<path d="M2.184 39V22.2H5.784V35.76H13.392V39H2.184ZM21.8139 39.24C20.4379 39.24 19.2299 38.96 18.1899 38.4C17.1659 37.84 16.3659 37.072 15.7899 36.096C15.2299 35.12 14.9499 34.008 14.9499 32.76C14.9499 31.768 15.1099 30.864 15.4299 30.048C15.7499 29.216 16.1979 28.504 16.7739 27.912C17.3499 27.32 18.0299 26.864 18.8139 26.544C19.6139 26.208 20.4859 26.04 21.4299 26.04C22.2939 26.04 23.0859 26.2 23.8059 26.52C24.5419 26.824 25.1739 27.264 25.7019 27.84C26.2459 28.4 26.6619 29.064 26.9499 29.832C27.2379 30.6 27.3739 31.44 27.3579 32.352L27.3339 33.408H17.1339L16.5819 31.296H24.5259L24.1179 31.728V31.224C24.0859 30.776 23.9419 30.384 23.6859 30.048C23.4459 29.712 23.1339 29.448 22.7499 29.256C22.3659 29.048 21.9419 28.944 21.4779 28.944C20.7579 28.944 20.1499 29.088 19.6539 29.376C19.1739 29.648 18.8059 30.048 18.5499 30.576C18.3099 31.088 18.1899 31.728 18.1899 32.496C18.1899 33.248 18.3499 33.912 18.6699 34.488C18.9899 35.048 19.4459 35.48 20.0379 35.784C20.6459 36.088 21.3579 36.24 22.1739 36.24C22.7339 36.24 23.2459 36.152 23.7099 35.976C24.1739 35.8 24.6779 35.496 25.2219 35.064L26.8299 37.344C26.3819 37.744 25.8779 38.088 25.3179 38.376C24.7579 38.664 24.1819 38.88 23.5899 39.024C22.9979 39.168 22.4059 39.24 21.8139 39.24ZM31.0999 39V23.088H34.5079V39H31.0999ZM28.7239 29.352V26.304H37.1239V29.352H28.7239ZM39.2252 28.344L38.1692 27.072C38.8252 26.8 39.3532 26.464 39.7532 26.064C40.1692 25.648 40.3772 25.296 40.3772 25.008C40.3772 24.832 40.3052 24.664 40.1612 24.504C40.0332 24.328 39.8652 24.168 39.6572 24.024C39.2892 23.736 39.0332 23.48 38.8892 23.256C38.7612 23.016 38.6972 22.76 38.6972 22.488C38.6972 22.024 38.8572 21.656 39.1772 21.384C39.5132 21.112 39.9452 20.976 40.4732 20.976C40.9532 20.976 41.3772 21.104 41.7452 21.36C42.1292 21.6 42.4332 21.944 42.6572 22.392C42.8812 22.824 42.9932 23.328 42.9932 23.904C42.9932 24.384 42.8972 24.856 42.7052 25.32C42.5132 25.784 42.2492 26.216 41.9132 26.616C41.5772 27.016 41.1772 27.368 40.7132 27.672C40.2652 27.976 39.7692 28.2 39.2252 28.344ZM49.9213 39.24C48.7533 39.24 47.7053 39.048 46.7773 38.664C45.8653 38.28 45.1213 37.736 44.5453 37.032L46.6813 35.208C47.1773 35.736 47.7213 36.12 48.3133 36.36C48.9213 36.584 49.5373 36.696 50.1613 36.696C50.3853 36.696 50.5933 36.672 50.7853 36.624C50.9773 36.56 51.1453 36.48 51.2893 36.384C51.4333 36.272 51.5373 36.144 51.6013 36C51.6813 35.856 51.7213 35.688 51.7213 35.496C51.7213 35.144 51.5773 34.872 51.2893 34.68C51.1613 34.584 50.9213 34.48 50.5693 34.368C50.2333 34.24 49.8013 34.104 49.2733 33.96C48.4573 33.752 47.7693 33.512 47.2093 33.24C46.6493 32.952 46.1933 32.624 45.8413 32.256C45.5533 31.952 45.3293 31.6 45.1693 31.2C45.0253 30.8 44.9533 30.36 44.9533 29.88C44.9533 29.112 45.1773 28.44 45.6253 27.864C46.0733 27.288 46.6653 26.84 47.4013 26.52C48.1533 26.2 48.9693 26.04 49.8493 26.04C50.5053 26.04 51.1373 26.12 51.7453 26.28C52.3693 26.44 52.9453 26.672 53.4733 26.976C54.0173 27.264 54.4893 27.608 54.8893 28.008L53.0653 30.048C52.7773 29.76 52.4493 29.512 52.0813 29.304C51.7133 29.08 51.3453 28.904 50.9773 28.776C50.6093 28.632 50.2733 28.56 49.9693 28.56C49.6973 28.56 49.4493 28.584 49.2253 28.632C49.0173 28.68 48.8413 28.76 48.6973 28.872C48.5533 28.968 48.4413 29.088 48.3613 29.232C48.2973 29.376 48.2653 29.536 48.2653 29.712C48.2653 29.888 48.3053 30.056 48.3853 30.216C48.4813 30.36 48.6093 30.496 48.7693 30.624C48.9293 30.72 49.1853 30.832 49.5373 30.96C49.9053 31.088 50.3773 31.232 50.9533 31.392C51.7213 31.6 52.3693 31.832 52.8973 32.088C53.4253 32.344 53.8493 32.64 54.1693 32.976C54.4573 33.264 54.6573 33.6 54.7693 33.984C54.8973 34.352 54.9613 34.752 54.9613 35.184C54.9613 35.968 54.7373 36.672 54.2893 37.296C53.8573 37.904 53.2573 38.384 52.4893 38.736C51.7373 39.072 50.8813 39.24 49.9213 39.24ZM57.8949 39V22.2H61.4949V39H57.8949ZM59.5509 32.328V29.208H68.2629V32.328H59.5509ZM59.5509 25.44V22.2H69.2709V25.44H59.5509ZM77.6621 39.24C76.3821 39.24 75.2301 38.96 74.2061 38.4C73.1981 37.824 72.3981 37.04 71.8061 36.048C71.2301 35.056 70.9421 33.928 70.9421 32.664C70.9421 31.368 71.2301 30.224 71.8061 29.232C72.3981 28.24 73.1981 27.464 74.2061 26.904C75.2301 26.328 76.3821 26.04 77.6621 26.04C78.9581 26.04 80.1101 26.328 81.1181 26.904C82.1261 27.464 82.9181 28.24 83.4941 29.232C84.0861 30.224 84.3821 31.368 84.3821 32.664C84.3821 33.928 84.0861 35.056 83.4941 36.048C82.9181 37.04 82.1261 37.824 81.1181 38.4C80.1101 38.96 78.9581 39.24 77.6621 39.24ZM77.6621 36.288C78.3021 36.288 78.8621 36.128 79.3421 35.808C79.8381 35.488 80.2221 35.056 80.4941 34.512C80.7821 33.968 80.9181 33.352 80.9021 32.664C80.9181 31.944 80.7821 31.312 80.4941 30.768C80.2221 30.208 79.8381 29.776 79.3421 29.472C78.8621 29.152 78.3021 28.992 77.6621 28.992C77.0381 28.992 76.4781 29.152 75.9821 29.472C75.4861 29.792 75.0941 30.224 74.8061 30.768C74.5181 31.312 74.3821 31.944 74.3981 32.664C74.3821 33.352 74.5181 33.968 74.8061 34.512C75.0941 35.056 75.4861 35.488 75.9821 35.808C76.4781 36.128 77.0381 36.288 77.6621 36.288ZM92.8262 39.24C91.5462 39.24 90.3942 38.96 89.3702 38.4C88.3622 37.824 87.5622 37.04 86.9702 36.048C86.3942 35.056 86.1062 33.928 86.1062 32.664C86.1062 31.368 86.3942 30.224 86.9702 29.232C87.5622 28.24 88.3622 27.464 89.3702 26.904C90.3942 26.328 91.5462 26.04 92.8262 26.04C94.1222 26.04 95.2742 26.328 96.2822 26.904C97.2902 27.464 98.0822 28.24 98.6582 29.232C99.2502 30.224 99.5462 31.368 99.5462 32.664C99.5462 33.928 99.2502 35.056 98.6582 36.048C98.0822 37.04 97.2902 37.824 96.2822 38.4C95.2742 38.96 94.1222 39.24 92.8262 39.24ZM92.8262 36.288C93.4662 36.288 94.0262 36.128 94.5062 35.808C95.0022 35.488 95.3862 35.056 95.6582 34.512C95.9462 33.968 96.0822 33.352 96.0662 32.664C96.0822 31.944 95.9462 31.312 95.6582 30.768C95.3862 30.208 95.0022 29.776 94.5062 29.472C94.0262 29.152 93.4662 28.992 92.8262 28.992C92.2022 28.992 91.6422 29.152 91.1462 29.472C90.6502 29.792 90.2582 30.224 89.9702 30.768C89.6822 31.312 89.5462 31.944 89.5622 32.664C89.5462 33.352 89.6822 33.968 89.9702 34.512C90.2582 35.056 90.6502 35.488 91.1462 35.808C91.6422 36.128 92.2022 36.288 92.8262 36.288ZM107.102 39.24C105.998 39.24 104.998 38.96 104.102 38.4C103.222 37.84 102.526 37.064 102.014 36.072C101.518 35.064 101.27 33.928 101.27 32.664C101.27 31.384 101.518 30.248 102.014 29.256C102.526 28.264 103.222 27.48 104.102 26.904C104.982 26.328 105.982 26.04 107.102 26.04C107.694 26.04 108.262 26.136 108.806 26.328C109.366 26.504 109.862 26.752 110.294 27.072C110.726 27.392 111.078 27.752 111.35 28.152C111.622 28.536 111.782 28.936 111.83 29.352L110.966 29.52V21.24H114.35V39H111.134L110.99 36.072L111.662 36.168C111.646 36.552 111.51 36.928 111.254 37.296C110.998 37.664 110.654 38 110.222 38.304C109.806 38.592 109.326 38.824 108.782 39C108.254 39.16 107.694 39.24 107.102 39.24ZM107.846 36.408C108.502 36.408 109.062 36.248 109.526 35.928C110.006 35.608 110.382 35.168 110.654 34.608C110.926 34.048 111.062 33.4 111.062 32.664C111.062 31.912 110.926 31.256 110.654 30.696C110.382 30.12 110.006 29.68 109.526 29.376C109.062 29.056 108.502 28.896 107.846 28.896C107.222 28.896 106.67 29.056 106.19 29.376C105.71 29.68 105.334 30.12 105.062 30.696C104.806 31.256 104.678 31.912 104.678 32.664C104.678 33.4 104.806 34.048 105.062 34.608C105.334 35.168 105.71 35.608 106.19 35.928C106.67 36.248 107.222 36.408 107.846 36.408Z" fill="#1D1D1D"/>
<path d="M137.88 10.3739C138.333 10.3739 138.768 10.191 139.09 9.86503C139.412 9.53902 139.595 9.09623 139.599 8.63296C139.604 8.1694 139.429 7.72281 139.113 7.39043C138.797 7.05805 138.365 6.86678 137.912 6.85828M137.732 13.8727C137.279 13.8727 136.844 13.6898 136.522 13.3638C136.201 13.0378 136.018 12.595 136.013 12.1317C136.009 11.6681 136.184 11.2216 136.5 10.8892C136.816 10.5568 137.247 10.3655 137.7 10.357M137.88 17.3883C138.333 17.3883 138.768 17.2054 139.09 16.8794C139.412 16.5534 139.595 16.1106 139.599 15.6473C139.604 15.1838 139.429 14.7372 139.113 14.4048C138.797 14.0724 138.365 13.8812 137.912 13.8727M144.755 10.3739C145.208 10.3739 145.643 10.191 145.965 9.86503C146.287 9.53902 146.47 9.09623 146.474 8.63296C146.479 8.1694 146.304 7.72281 145.988 7.39043C145.672 7.05805 145.24 6.86678 144.787 6.85828M144.607 13.8727C144.154 13.8727 143.719 13.6898 143.397 13.3638C143.076 13.0378 142.893 12.595 142.888 12.1317C142.884 11.6681 143.059 11.2216 143.375 10.8892C143.691 10.5568 144.122 10.3655 144.575 10.357M144.755 17.3883C145.208 17.3883 145.643 17.2054 145.965 16.8794C146.287 16.5534 146.47 16.1106 146.474 15.6473C146.479 15.1838 146.304 14.7372 145.988 14.4048C145.672 14.0724 145.24 13.8812 144.787 13.8727M131.538 10.3739C131.991 10.3739 132.425 10.191 132.747 9.86503C133.069 9.53902 133.252 9.09623 133.256 8.63296C133.261 8.16964 133.086 7.72326 132.77 7.39092C132.455 7.05858 132.024 6.86715 131.571 6.85828M131.39 13.8727C130.937 13.8727 130.503 13.6898 130.181 13.3638C129.859 13.0378 129.676 12.595 129.672 12.1317C129.667 11.6684 129.842 11.222 130.158 10.8897C130.473 10.5573 130.905 10.3659 131.357 10.357M131.538 17.3883C131.991 17.3883 132.425 17.2054 132.747 16.8794C133.069 16.5534 133.252 16.1106 133.256 15.6473C133.261 15.184 133.086 14.7376 132.77 14.4053C132.455 14.073 132.024 13.8815 131.571 13.8727" stroke="#FAA41A" stroke-linecap="round" stroke-linejoin="round"/>
<path d="M132.207 38.1417H144.579V33.9567C141.944 35.1464 140.408 35.332 138.271 35.377C135.599 35.4333 133.788 34.9608 132.207 34.5558V38.1417Z" stroke="#383747" stroke-linecap="round" stroke-linejoin="round"/>
<path d="M153.965 22.9908C151.655 31.8136 142.826 37.0491 134.2 34.6852C131.462 33.9376 128.965 32.4649 126.962 30.4157C124.958 28.3665 123.518 25.8132 122.787 23.0133L153.965 22.9908Z" fill="#FAA41A" stroke="#383747" stroke-linecap="round" stroke-linejoin="round"/>
<path d="M122.779 20.1712H153.971V23.0667H122.779V20.1712Z" stroke="#383747" stroke-linecap="round" stroke-linejoin="round"/>
<path d="M142.927 20.1628C153.652 20.5959 150.955 12.78 158.882 12.074C159.666 12.0037 160.079 11.9883 161.179 12.06L161.22 12.0459C159.852 11.2134 157.33 9.80436 155.225 10.402C154.148 10.7086 152.471 11.8926 151.347 14.1497C148.519 20.4834 145.765 20.1501 143.524 20.1614L142.927 20.1628Z" stroke="#383747" stroke-linecap="round" stroke-linejoin="round"/>
<path d="M149.527 25.4756C148.553 28.5131 145.948 30.6225 142.923 31.1962" stroke="white" stroke-linecap="round" stroke-linejoin="round"/>
</svg>
